<svg width="32" height="32" viewBox="0 0 32 32" fill="none" xmlns="http://www.w3.org/2000/svg">
<path d="M9.34265 16.0001C9.34265 15.7349 9.44801 15.4805 9.63554 15.293C9.82308 15.1055 10.0774 15.0001 10.3427 15.0001H15V10.3428C15 10.0776 15.1053 9.8232 15.2929 9.63567C15.4804 9.44813 15.7348 9.34277 16 9.34277C16.2652 9.34277 16.5196 9.44813 16.7071 9.63567C16.8946 9.8232 17 10.0776 17 10.3428V15.0001H21.6573C21.9225 15.0001 22.1769 15.1055 22.3644 15.293C22.552 15.4805 22.6573 15.7349 22.6573 16.0001C22.6573 16.2653 22.552 16.5197 22.3644 16.7072C22.1769 16.8947 21.9225 17.0001 21.6573 17.0001H17V21.6574C17 21.9227 16.8946 22.177 16.7071 22.3645C16.5196 22.5521 16.2652 22.6574 16 22.6574C15.7348 22.6574 15.4804 22.5521 15.2929 22.3645C15.1053 22.177 15 21.9227 15 21.6574V17.0001H10.3427C10.0774 17.0001 9.82308 16.8947 9.63554 16.7072C9.44801 16.5197 9.34265 16.2653 9.34265 16.0001Z" fill="#8BAFCE"/>
<path fill-rule="evenodd" clip-rule="evenodd" d="M9.75599 5.02572C13.9059 4.56564 18.094 4.56564 22.244 5.02572C24.68 5.29772 26.6467 7.21639 26.932 9.66572C27.4253 13.8751 27.4253 18.1271 26.932 22.3364C26.6453 24.7857 24.6787 26.7031 22.244 26.9764C18.094 27.4365 13.9059 27.4365 9.75599 26.9764C7.31999 26.7031 5.35332 24.7857 5.06799 22.3364C4.57687 18.1271 4.57687 13.875 5.06799 9.66572C5.35332 7.21639 7.32132 5.29772 9.75599 5.02572ZM22.0227 7.01239C18.0198 6.56869 13.9802 6.56869 9.97732 7.01239C9.23631 7.0946 8.54466 7.42422 8.01409 7.94801C7.48353 8.4718 7.14504 9.15916 7.05332 9.89906C6.5791 13.9537 6.5791 18.0498 7.05332 22.1044C7.14532 22.844 7.48393 23.5311 8.01447 24.0546C8.54501 24.5781 9.23651 24.9076 9.97732 24.9897C13.9467 25.4324 18.0533 25.4324 22.0227 24.9897C22.7632 24.9073 23.4544 24.5777 23.9847 24.0542C24.515 23.5307 24.8534 22.8438 24.9453 22.1044C25.4195 18.0498 25.4195 13.9537 24.9453 9.89906C24.8531 9.15985 24.5146 8.47325 23.9843 7.95002C23.4541 7.42679 22.763 7.09742 22.0227 7.01506" fill="#8BAFCE"/>
</svg>
