<svg width="700" height="722" viewBox="0 0 700 722" fill="none" xmlns="http://www.w3.org/2000/svg">
<path fill-rule="evenodd" clip-rule="evenodd" d="M360.634 0.779297C395.274 0.779297 423.355 41.4081 423.355 91.5263C423.355 141.644 395.274 182.273 360.634 182.273C325.995 182.273 297.914 141.644 297.914 91.5263C297.914 41.4081 325.995 0.779297 360.634 0.779297ZM541.624 175.706C507.245 210.086 463.311 221.892 443.495 202.075C423.679 182.259 435.485 138.324 469.864 103.945C504.243 69.5654 548.177 57.7596 567.993 77.576C587.809 97.3923 576.004 141.327 541.624 175.706ZM611.967 492.125C563.347 492.125 523.933 449.938 523.933 397.898C523.933 345.858 563.347 303.671 611.967 303.671C660.586 303.671 700 345.858 700 397.898C700 449.938 660.586 492.125 611.967 492.125ZM121.763 491.901C73.1433 491.901 33.7295 475.325 33.7295 454.876C33.7295 434.428 73.1433 417.851 121.763 417.851C170.382 417.851 209.796 434.428 209.796 454.876C209.796 475.325 170.382 491.901 121.763 491.901ZM127.651 629.435C147.467 649.252 191.401 637.446 225.78 603.066C260.159 568.687 271.965 524.753 252.149 504.936C232.333 485.12 188.399 496.926 154.02 531.305C119.64 565.685 107.835 609.619 127.651 629.435ZM427.805 567.183C427.805 611.09 467.218 646.684 515.838 646.684C564.457 646.684 603.871 611.09 603.871 567.183C603.871 523.276 564.457 487.682 515.838 487.682C467.218 487.682 427.805 523.276 427.805 567.183ZM88.0333 209.438C136.653 209.438 176.067 251.625 176.067 303.665C176.067 355.705 136.653 397.892 88.0333 397.892C39.4139 397.892 0 355.705 0 303.665C0 251.625 39.4139 209.438 88.0333 209.438ZM659.269 246.683C659.269 226.235 619.855 209.658 571.235 209.658C522.616 209.658 483.202 226.235 483.202 246.683C483.202 267.131 522.616 283.708 571.235 283.708C619.855 283.708 659.269 267.131 659.269 246.683ZM401.951 630.474C401.951 580.356 373.87 539.727 339.23 539.727C304.591 539.727 276.51 580.356 276.51 630.474C276.51 680.592 304.591 721.221 339.23 721.221C373.87 721.221 401.951 680.592 401.951 630.474ZM188.478 54.8653C237.098 54.8653 276.511 90.4591 276.511 134.366C276.511 178.274 237.098 213.868 188.478 213.868C139.859 213.868 100.445 178.274 100.445 134.366C100.445 90.4591 139.859 54.8653 188.478 54.8653Z" fill="#E9EEF2"/>
</svg>
