<svg width="24" height="24" viewBox="0 0 24 24" fill="none" xmlns="http://www.w3.org/2000/svg">
<path d="M19.4391 12.5838L19.9044 10.8448C20.4481 8.81505 20.7208 7.80064 20.5165 6.92215C20.3546 6.22861 19.9906 5.59869 19.4706 5.11205C18.8126 4.49548 17.7973 4.22365 15.7676 3.67999C13.7378 3.13543 12.7225 2.8636 11.8449 3.06792C11.1514 3.22986 10.5215 3.59384 10.0348 4.11383C9.50648 4.6773 9.23105 5.50269 8.82151 7.00225L8.60188 7.81684L8.13653 9.55584C7.59197 11.5856 7.32014 12.6 7.52446 13.4785C7.6864 14.172 8.05039 14.8019 8.57038 15.2886C9.22835 15.9051 10.2437 16.177 12.2734 16.7215C14.1024 17.2112 15.1078 17.4803 15.9314 17.3786C16.0214 17.3672 16.1096 17.3516 16.196 17.3318C16.8893 17.1704 17.5192 16.807 18.0061 16.2877C18.6227 15.6288 18.8945 14.6135 19.4391 12.5838Z" stroke="#DDE2E5" stroke-width="1.5"/>
<path d="M15.9314 17.3782C15.7432 17.9546 15.4126 18.4741 14.9701 18.8886C14.3121 19.5052 13.2968 19.777 11.2671 20.3206C9.23735 20.8643 8.22204 21.137 7.34444 20.9318C6.65101 20.7701 6.0211 20.4065 5.53434 19.8868C4.91777 19.2288 4.64504 18.2135 4.10138 16.1838L3.63603 14.4448C3.09147 12.4151 2.81964 11.3998 3.02396 10.5222C3.1859 9.82863 3.54989 9.19871 4.06988 8.71207C4.72785 8.0955 5.74316 7.82367 7.77289 7.27911C8.15573 7.1759 8.50527 7.08319 8.8215 7.00098" stroke="#DDE2E5" stroke-width="1.5"/>
</svg>
