<svg width="92" height="44" viewBox="0 0 92 44" fill="none" xmlns="http://www.w3.org/2000/svg">
<path fill-rule="evenodd" clip-rule="evenodd" d="M14.693 35.1444C11.8689 35.1444 9.34941 34.4549 7.13471 33.0758C4.91998 31.6967 3.17346 29.7393 1.89515 27.2036C0.631717 24.653 0 21.6353 0 18.1505C0 14.6509 0.631717 11.6258 1.89515 9.07527C3.17346 6.52469 4.91998 4.55987 7.13471 3.1808C9.34941 1.80171 11.8689 1.11217 14.693 1.11217C17.532 1.11217 20.0514 1.80171 22.2513 3.1808C24.4512 4.55987 26.1828 6.52469 27.4462 9.07527C28.7097 11.6258 29.3414 14.6509 29.3414 18.1505C29.3414 21.6353 28.7097 24.653 27.4462 27.2036C26.1828 29.7393 24.4512 31.6967 22.2513 33.0758C20.0514 34.4549 17.532 35.1444 14.693 35.1444ZM14.693 31.4075C16.6996 31.4075 18.513 30.9034 20.1332 29.895C21.7682 28.8718 23.0614 27.3741 24.0127 25.4018C24.9788 23.4296 25.4619 21.0125 25.4619 18.1505C25.4619 15.2737 24.9788 12.8492 24.0127 10.877C23.0614 8.88988 21.7682 7.3922 20.1332 6.38384C18.513 5.36061 16.6996 4.84906 14.693 4.84906C12.6864 4.84906 10.8655 5.36061 9.23052 6.38384C7.59548 7.3922 6.29488 8.88988 5.32871 10.877C4.36257 12.8492 3.87949 15.2737 3.87949 18.1505C3.87949 21.0125 4.36257 23.4296 5.32871 25.4018C6.29488 27.3741 7.59548 28.8718 9.23052 29.895C10.8655 30.9034 12.6864 31.4075 14.693 31.4075ZM34.4712 9.83154L40.4019 20.019L46.3772 9.83154H50.7918L50.1311 10.857L40.344 25.1175L40.3587 25.1162L34.4712 34.6995H30.0566L37.9494 22.2878L30.0566 9.83154H34.4712ZM40.441 25.1091L46.3772 34.6995H50.7918L44.3705 24.77L40.441 25.1091ZM52.3097 34.6995V9.83154H56.1V34.6995H52.3097ZM54.2272 5.69428C53.484 5.69428 52.8448 5.44219 52.3097 4.93801C51.7747 4.43382 51.5071 3.82583 51.5071 3.11406C51.5071 2.40228 51.7747 1.7943 52.3097 1.29012C52.8448 0.785941 53.484 0.53385 54.2272 0.53385C54.9703 0.53385 55.6096 0.785941 56.1446 1.29012C56.6798 1.7943 56.9472 2.40228 56.9472 3.11406C56.9472 3.82583 56.6798 4.43382 56.1446 4.93801C55.6096 5.44219 54.9703 5.69428 54.2272 5.69428ZM70.2374 9.83154H69.7041H64.6189V7.3403C64.6189 6.10952 64.9013 5.17529 65.4661 4.53763C66.0457 3.88517 66.9673 3.55894 68.2308 3.55894C68.7956 3.55894 69.2415 3.61083 69.5686 3.71464C69.9104 3.8036 70.178 3.88517 70.3712 3.95931L71.486 0.667313C71.2035 0.53385 70.7576 0.392971 70.1482 0.244689C69.5537 0.0815578 68.7807 0 67.8294 0C66.6552 0 65.5329 0.237272 64.4628 0.711785C63.3926 1.18631 62.5156 1.8981 61.8319 2.84715C61.163 3.79616 60.8286 4.98248 60.8286 6.40608V9.83154H56.8153V13.079H60.8286V34.6995H64.6189V13.079H70.2374V13.0768H70.8964L78.89 34.833L78.1765 36.7904C77.5225 38.5847 76.7571 39.6894 75.8801 40.1047C75.0179 40.5347 73.9477 40.6014 72.6694 40.3048L72.2904 40.2158L71.3093 43.5524C71.5175 43.6562 71.8742 43.76 72.3796 43.8638C72.8849 43.9676 73.4647 44.0121 74.1187 43.9972C75.2781 43.9972 76.3185 43.7896 77.2401 43.3744C78.1617 42.974 78.9718 42.3512 79.6704 41.506C80.3689 40.6607 80.956 39.593 81.4317 38.3029L92 9.83154H87.853L80.9858 29.6726H80.7182L73.8511 9.83154H70.2374Z" fill="#E9EEF2"/>
</svg>
